<?xml version="1.0" standalone="no"?>
<!DOCTYPE svg PUBLIC "-//W3C//DTD SVG 20010904//EN"
 "http://www.w3.org/TR/2001/REC-SVG-20010904/DTD/svg10.dtd">
<svg version="1.0" xmlns="http://www.w3.org/2000/svg"
 width="680.000000pt" height="403.000000pt" viewBox="0 0 680.000000 403.000000"
 preserveAspectRatio="xMidYMid meet">

<g transform="translate(0.000000,403.000000) scale(0.100000,-0.100000)"
fill="#000000" stroke="none">
<path d="M1150 2151 l0 -281 90 0 90 0 0 85 c0 47 3 85 7 85 4 0 17 -10 30
-21 l22 -22 153 144 c84 79 166 155 181 168 l27 24 0 -201 0 -202 -35 0 -35 0
0 120 c0 66 -3 120 -6 120 -13 0 -234 -214 -231 -224 2 -5 10 -14 19 -20 13
-8 30 4 84 53 l69 63 3 -86 3 -86 538 0 c459 0 545 2 582 15 164 58 238 234
163 390 -23 49 -81 105 -133 129 -45 20 -61 21 -526 23 l-480 3 -185 -174
c-102 -96 -189 -175 -195 -175 -5 0 -30 20 -55 44 -25 25 -48 45 -52 45 -5 0
-8 -54 -8 -120 l0 -120 -35 0 -35 0 0 195 c0 143 3 195 12 195 6 0 46 -34 89
-75 71 -70 79 -75 98 -63 12 7 21 17 20 23 -1 17 -227 220 -249 223 -20 3 -20
0 -20 -277z m1164 209 c5 -5 6 -19 3 -32 l-6 -23 -253 1 -253 1 -3 22 c-7 46
-8 46 254 43 137 -1 253 -7 258 -12z m431 -9 c76 -34 135 -122 135 -202 0 -44
-30 -115 -63 -149 -57 -59 -95 -70 -250 -70 l-138 0 3 158 3 157 110 3 c130 3
149 0 181 -35 46 -50 24 -128 -43 -154 -13 -5 -47 -9 -74 -9 l-49 0 0 65 0 65
-30 0 -30 0 0 -90 0 -90 104 0 c90 0 107 3 136 23 96 65 89 210 -13 264 -26
14 -61 17 -194 18 l-163 0 0 33 0 32 168 0 c140 0 173 -3 207 -19z m-367 -198
l-3 -98 -190 0 -190 0 -3 33 -3 32 125 0 126 0 0 30 0 30 -150 0 -150 0 0 -90
0 -90 185 0 185 0 0 -35 0 -35 -220 0 -220 0 0 160 0 160 255 0 256 0 -3 -97z"/>
<path d="M2940 2340 l0 -90 60 0 c57 0 60 1 60 25 0 21 -5 25 -30 25 -28 0
-30 3 -30 35 l0 36 63 -3 62 -3 0 -215 0 -215 -32 -3 -33 -3 0 125 0 126 -30
0 -30 0 0 -155 0 -155 90 0 90 0 0 110 c0 61 4 110 8 110 5 0 14 -19 21 -42 8
-26 32 -60 65 -94 74 -73 115 -84 318 -84 l158 0 0 89 0 90 -161 3 -161 3 -29
33 c-38 42 -38 82 0 124 l29 33 131 3 131 4 0 -52 c0 -50 1 -51 28 -48 27 3
27 3 23 73 -2 39 -4 71 -6 73 -7 8 -304 2 -327 -7 -34 -13 -67 -47 -85 -90
-21 -50 -9 -102 37 -153 l38 -43 143 -5 144 -5 3 -32 3 -33 -136 0 c-148 0
-187 9 -239 58 -89 84 -87 249 4 325 60 51 89 57 261 57 l159 0 0 31 0 31
-172 -4 c-161 -3 -176 -5 -222 -28 -58 -30 -120 -97 -137 -148 -22 -71 -29
-57 -29 61 l0 117 -120 0 -120 0 0 -90z"/>
<path d="M3901 2156 c-78 -151 -141 -277 -141 -281 0 -3 44 -4 98 -3 l97 3 33
63 33 62 65 0 c46 0 64 4 64 13 0 22 -22 37 -55 37 -44 0 -48 8 -24 46 19 32
19 34 3 66 l-17 32 -30 -59 c-17 -33 -47 -91 -66 -130 -34 -67 -38 -70 -75
-73 l-38 -3 103 200 c90 173 106 199 116 184 7 -9 61 -112 120 -230 l108 -213
98 0 c53 0 97 3 97 8 0 4 -63 129 -139 277 -134 259 -140 270 -170 273 -37 4
-38 -1 -5 -58 22 -39 213 -410 223 -433 2 -4 -14 -7 -34 -5 l-37 3 -127 247
c-88 173 -131 248 -143 248 -12 0 -57 -79 -157 -274z"/>
<path d="M4510 2215 l0 -215 188 -2 187 -3 3 -32 3 -33 -189 0 -190 0 -4 -30
-5 -30 224 0 223 0 0 90 0 90 -192 2 -193 3 -3 158 -3 157 36 0 35 0 0 -125 0
-125 25 0 25 0 0 155 0 155 -85 0 -85 0 0 -215z"/>
</g>
</svg>
